<svg width="104" height="104" viewBox="0 0 104 104" fill="none" xmlns="http://www.w3.org/2000/svg">
<circle cx="52" cy="52" r="52" fill="#D60000"/>
<path d="M58.3265 39.8848L63.0338 35.1752C62.4769 34.6185 62.0658 33.933 61.8371 33.1795C61.6084 32.4259 61.5691 31.6276 61.7225 30.8553C61.876 30.0829 62.2176 29.3603 62.7171 28.7515C63.2165 28.1427 63.8584 27.6664 64.5858 27.3649C65.3133 27.0634 66.1039 26.9459 66.8876 27.0229C67.6713 27.0999 68.4239 27.369 69.0787 27.8064C69.7336 28.2437 70.2705 28.8358 70.6419 29.5301C71.0133 30.2245 71.2077 30.9998 71.208 31.7873C71.9956 31.7867 72.7713 31.9804 73.4662 32.3513C74.161 32.7222 74.7537 33.2588 75.1916 33.9135C75.6296 34.5682 75.8992 35.3208 75.9768 36.1047C76.0543 36.8885 75.9372 37.6794 75.636 38.4072C75.3348 39.135 74.8587 39.7772 74.2499 40.277C73.6411 40.7768 72.9184 41.1187 72.1459 41.2724C71.3734 41.4262 70.5749 41.3869 69.8211 41.1583C69.0674 40.9296 68.3817 40.5185 67.8248 39.9614L63.4671 44.3215" stroke="black" stroke-width="4" stroke-linecap="round" stroke-linejoin="round"/>
<path d="M39.8512 64.3411C46.3965 70.8864 53.9765 73.9184 56.7816 71.1133C59.5867 68.3081 56.5547 60.7282 50.0095 54.1829C43.4642 47.6376 35.8842 44.6056 33.0791 47.4108C30.274 50.2159 33.306 57.7958 39.8512 64.3411Z" stroke="black" stroke-width="4" stroke-linecap="round" stroke-linejoin="round"/>
<path d="M56.7822 71.1139C66.132 61.7617 68.4066 48.8755 61.8606 42.3318C55.3169 35.7858 42.4307 38.0604 33.0809 47.4102M43.6733 58.1247L46.0677 60.519L43.6733 58.1247Z" stroke="black" stroke-width="4" stroke-linecap="round" stroke-linejoin="round"/>
</svg>
