<svg width="104" height="104" viewBox="0 0 104 104" fill="none" xmlns="http://www.w3.org/2000/svg">
<circle cx="52" cy="52" r="52" fill="#FF2929"/>
<path d="M60.125 57.875L68.9949 49.0051C69.512 48.4882 70.1259 48.0781 70.8015 47.7984C71.4771 47.5187 72.2012 47.3748 72.9324 47.375H73.25C74.6424 47.375 75.9777 47.9281 76.9623 48.9127C77.9469 49.8973 78.5 51.2326 78.5 52.625C78.5 54.0174 77.9469 55.3527 76.9623 56.3373C75.9777 57.3219 74.6424 57.875 73.25 57.875H31.25C29.8576 57.875 28.5223 57.3219 27.5377 56.3373C26.5531 55.3527 26 54.0174 26 52.625C26 51.2326 26.5531 49.8973 27.5377 48.9127C28.5223 47.9281 29.8576 47.375 31.25 47.375H43.1019C47.2783 47.3752 51.2837 49.0342 54.2371 51.9871L60.125 57.875ZM28.625 57.875H75.875V63.125C75.875 65.2136 75.0453 67.2166 73.5685 68.6935C72.0916 70.1703 70.0886 71 68 71H36.5C34.4114 71 32.4084 70.1703 30.9315 68.6935C29.4547 67.2166 28.625 65.2136 28.625 63.125V57.875Z" stroke="black" stroke-width="4.5" stroke-linecap="round" stroke-linejoin="round"/>
<path d="M52.2526 39.5H52.25M52.25 29C40.1146 29 30.116 33.6095 28.7773 44.75C28.604 46.1938 29.801 47.375 31.25 47.375H73.25C74.699 47.375 75.896 46.1938 75.7228 44.75C74.384 33.6095 64.3854 29 52.25 29ZM39.1276 39.5H39.125H39.1276ZM60.1276 36.875H60.125H60.1276Z" stroke="black" stroke-width="4.5" stroke-linecap="round" stroke-linejoin="round"/>
</svg>
