<svg width="104" height="104" viewBox="0 0 104 104" fill="none" xmlns="http://www.w3.org/2000/svg">
<circle cx="52" cy="52" r="52" fill="#FFF50E"/>
<path d="M60.2759 31.3793V35.7488L53.5172 42.5074V28H50.1379V42.5074L43.3793 35.7488V31.3793H40V58.4138C40.0047 61.2551 41.0316 63.9999 42.8929 66.1467C44.7543 68.2935 47.3259 69.6989 50.1379 70.1062V77H53.5172V70.1062C56.3293 69.6989 58.9009 68.2935 60.7622 66.1467C62.6236 63.9999 63.6504 61.2551 63.6552 58.4138V31.3793H60.2759ZM50.1379 66.6914C48.2311 66.2996 46.5178 65.2623 45.2866 63.7545C44.0555 62.2466 43.3818 60.3604 43.3793 58.4138V54.0443L50.1379 60.803V66.6914ZM50.1379 56.0246L43.3793 49.266V40.5271L50.1379 47.2857V56.0246ZM53.5172 47.2857L60.2759 40.5271V49.266L53.5172 56.0246V47.2857ZM53.5172 66.6914V60.803L60.2759 54.0443V58.4138C60.2733 60.3604 59.5997 62.2466 58.3686 63.7545C57.1374 65.2623 55.424 66.2996 53.5172 66.6914Z" fill="black"/>
</svg>
