<svg width="104" height="104" viewBox="0 0 104 104" fill="none" xmlns="http://www.w3.org/2000/svg">
<circle cx="52" cy="52" r="52" fill="#0EC5FF"/>
<path d="M50.415 45.2125C51.4325 47.4325 52 49.9 52 52.5C52 55.1 51.4325 57.5675 50.415 59.7875C57.26 58.9175 62 55.5375 62 52.5C62 49.4625 57.26 46.0825 50.415 45.2125ZM64.5 46.4425C67.13 43.4825 71.6275 41.2575 77 40.3925V64.605C71.6275 63.7425 67.13 61.5175 64.5 58.555C61.0875 62.4 54.53 65 47 65C35.955 65 27 59.4025 27 52.5C27 45.5975 35.955 40 47 40C54.53 40 61.0875 42.6 64.5 46.4425ZM72 57.5V47.5C69.125 48.075 67 50.095 67 52.5C67 54.905 69.125 56.925 72 57.5ZM32 52.5C32 55.675 37.1925 59.24 44.58 59.895C46.1571 57.7524 47.0053 55.1604 47 52.5C47.0053 49.8396 46.1571 47.2476 44.58 45.105C37.1925 45.76 32 49.325 32 52.5ZM39.5 55C38.837 55 38.2011 54.7366 37.7322 54.2678C37.2634 53.7989 37 53.163 37 52.5C37 51.837 37.2634 51.2011 37.7322 50.7322C38.2011 50.2634 38.837 50 39.5 50C40.163 50 40.7989 50.2634 41.2678 50.7322C41.7366 51.2011 42 51.837 42 52.5C42 53.163 41.7366 53.7989 41.2678 54.2678C40.7989 54.7366 40.163 55 39.5 55Z" fill="black"/>
</svg>
