<svg width="104" height="104" viewBox="0 0 104 104" fill="none" xmlns="http://www.w3.org/2000/svg">
<circle cx="52" cy="52" r="52" fill="#0EFF60"/>
<path d="M37.7838 57.8859C38.477 59.2722 37.8781 61.7621 37.1461 63.947C36.4155 66.1319 35.6613 68.3861 36.2034 70.7539C36.7441 73.119 37.8018 74.9448 39.3421 76.1718C40.7617 77.3058 41.9844 77.9879 44.0224 77.9879C44.7474 77.9851 46.7951 77.2947 46.7951 77.2947M63.4312 31.4094C65.5107 30.8521 68.0477 31.0074 69.5866 31.4094C73.0538 32.3217 75.5825 33.8882 77.095 36.0676C78.846 38.5866 79.1482 41.8029 77.9989 45.625C75.6435 53.444 66.0764 58.2962 65.5107 58.579L63.4312 31.4094ZM56.8419 77.669C57.5559 77.8049 58.2809 77.877 59.0074 77.8784C61.0453 77.8784 62.799 77.303 64.2159 76.1676C65.7603 74.9407 66.8971 73.1357 67.3587 70.7512C67.819 68.3639 67.1466 66.1263 66.416 63.9442C65.8989 62.3929 65.5593 60.0555 65.5107 58.5804L56.8419 77.669ZM37.0906 57.1927C37.0906 57.1927 29.036 53.4412 26.6833 45.625C25.5327 41.8043 25.8363 38.5907 27.5859 36.0676C29.1011 33.8882 31.6257 32.3217 35.0943 31.4094C36.6345 31.006 38.1082 30.8008 39.4779 30.8008L37.0906 57.1927Z" stroke="black" stroke-width="3.5" stroke-linecap="round" stroke-linejoin="round"/>
<path d="M51.6472 26C58.9214 26 64.8175 29.6641 64.8175 40.3833C64.8175 51.104 51.6472 64.8177 51.6472 64.8177C51.6472 64.8177 38.477 51.1026 38.477 40.3833C38.477 29.6627 44.3731 26 51.6472 26Z" stroke="black" stroke-width="3.5" stroke-linecap="round" stroke-linejoin="round"/>
<path d="M52.3404 79C49.5538 79 47.1832 78.0809 45.5889 76.6848C43.7492 75.0656 42.812 72.7656 42.812 69.846C42.812 67.4115 44.129 65.3805 45.4003 63.4133C46.3042 62.0173 47.5547 59.2681 47.5547 59.2681C47.5547 59.2681 48.2132 57.0001 48.1051 55.525C47.9041 52.8022 45.2603 50.7518 44.8305 49.3461C44.3107 47.5993 44.4382 46.5346 45.2256 46.0022C45.4682 45.8358 46.3971 45.7804 46.3971 45.7804C46.3971 45.7804 46.2224 43.2212 46.3319 42.3769C46.4636 41.3649 46.9918 39.9217 48.234 39.8149C49.0935 39.7415 49.7729 39.8704 50.2137 40.7951C50.3551 41.0945 50.4536 41.4564 50.5908 41.9582C51.0525 43.6304 51.6349 45.2669 52.3334 46.8548C53.0336 45.2676 53.6174 43.6315 54.0802 41.9596C54.2189 41.4578 54.3159 41.0945 54.4587 40.7951C54.8996 39.869 55.5816 39.7415 56.4412 39.8163C57.4879 39.9078 58.2088 41.3676 58.3405 42.3769C58.4514 43.2212 58.4292 44.3455 58.2753 45.779H58.3405C58.6385 45.779 59.2083 45.8344 59.4523 46.0008C60.2412 46.5332 60.2869 48.1081 59.8447 49.3461C59.2721 50.9542 56.7808 52.525 56.4994 55.1133C56.3206 56.745 56.6311 57.7057 57.1246 59.2695C57.6736 61.0094 58.3724 62.0187 59.279 63.4133C60.5517 65.3792 61.8673 67.4129 61.8673 69.846C61.8673 72.7656 60.9329 75.0669 59.0891 76.682C57.492 78.0795 55.1255 78.9986 52.339 78.9986L52.3404 79Z" stroke="black" stroke-width="3.5" stroke-linecap="round" stroke-linejoin="round"/>
</svg>
